<mxfile host="app.diagrams.net" modified="2022-07-01T07:16:57.850Z" agent="5.0 (Windows NT 10.0; Win64; x64) AppleWebKit/537.36 (KHTML, like Gecko) Chrome/101.0.0.0 Safari/537.36" etag="wOQsFIsfQxkNITbq655W" version="20.0.2" type="github">
  <diagram id="cwHXJIiC5tP3f0Pipmuv" name="Page-1">
    <mxGraphModel dx="815" dy="505" grid="1" gridSize="10" guides="1" tooltips="1" connect="1" arrows="1" fold="1" page="1" pageScale="1" pageWidth="827" pageHeight="1169" math="0" shadow="0">
      <root>
        <mxCell id="0" />
        <mxCell id="1" parent="0" />
        <mxCell id="4nFBKKFQW2utwHD5Wa9A-1" value="github, gitee" style="ellipse;shape=cloud;whiteSpace=wrap;html=1;" vertex="1" parent="1">
          <mxGeometry x="260" y="80" width="320" height="150" as="geometry" />
        </mxCell>
        <mxCell id="4nFBKKFQW2utwHD5Wa9A-2" value="" style="shape=cylinder3;whiteSpace=wrap;html=1;boundedLbl=1;backgroundOutline=1;size=15;" vertex="1" parent="1">
          <mxGeometry x="330" y="160" width="60" height="40" as="geometry" />
        </mxCell>
        <mxCell id="4nFBKKFQW2utwHD5Wa9A-3" value="" style="shape=cylinder3;whiteSpace=wrap;html=1;boundedLbl=1;backgroundOutline=1;size=15;" vertex="1" parent="1">
          <mxGeometry x="470" y="160" width="60" height="40" as="geometry" />
        </mxCell>
        <mxCell id="4nFBKKFQW2utwHD5Wa9A-4" value="本地库" style="shape=cylinder3;whiteSpace=wrap;html=1;boundedLbl=1;backgroundOutline=1;size=15;" vertex="1" parent="1">
          <mxGeometry x="220" y="290" width="60" height="80" as="geometry" />
        </mxCell>
        <mxCell id="4nFBKKFQW2utwHD5Wa9A-5" value="本地库" style="shape=cylinder3;whiteSpace=wrap;html=1;boundedLbl=1;backgroundOutline=1;size=15;" vertex="1" parent="1">
          <mxGeometry x="360" y="290" width="60" height="80" as="geometry" />
        </mxCell>
        <mxCell id="4nFBKKFQW2utwHD5Wa9A-6" value="本地库" style="shape=cylinder3;whiteSpace=wrap;html=1;boundedLbl=1;backgroundOutline=1;size=15;" vertex="1" parent="1">
          <mxGeometry x="490" y="290" width="60" height="80" as="geometry" />
        </mxCell>
        <mxCell id="4nFBKKFQW2utwHD5Wa9A-7" value="本地库" style="shape=cylinder3;whiteSpace=wrap;html=1;boundedLbl=1;backgroundOutline=1;size=15;" vertex="1" parent="1">
          <mxGeometry x="610" y="290" width="60" height="80" as="geometry" />
        </mxCell>
        <mxCell id="4nFBKKFQW2utwHD5Wa9A-8" value="Actor" style="shape=umlActor;verticalLabelPosition=bottom;verticalAlign=top;html=1;outlineConnect=0;" vertex="1" parent="1">
          <mxGeometry x="230" y="470" width="30" height="60" as="geometry" />
        </mxCell>
        <mxCell id="4nFBKKFQW2utwHD5Wa9A-10" value="Actor" style="shape=umlActor;verticalLabelPosition=bottom;verticalAlign=top;html=1;outlineConnect=0;" vertex="1" parent="1">
          <mxGeometry x="375" y="470" width="30" height="60" as="geometry" />
        </mxCell>
        <mxCell id="4nFBKKFQW2utwHD5Wa9A-11" value="Actor" style="shape=umlActor;verticalLabelPosition=bottom;verticalAlign=top;html=1;outlineConnect=0;" vertex="1" parent="1">
          <mxGeometry x="505" y="470" width="30" height="60" as="geometry" />
        </mxCell>
        <mxCell id="4nFBKKFQW2utwHD5Wa9A-12" value="Actor" style="shape=umlActor;verticalLabelPosition=bottom;verticalAlign=top;html=1;outlineConnect=0;" vertex="1" parent="1">
          <mxGeometry x="625" y="480" width="30" height="60" as="geometry" />
        </mxCell>
        <mxCell id="4nFBKKFQW2utwHD5Wa9A-13" value="" style="endArrow=classic;html=1;rounded=0;entryX=0.371;entryY=1.028;entryDx=0;entryDy=0;entryPerimeter=0;" edge="1" parent="1" target="4nFBKKFQW2utwHD5Wa9A-4">
          <mxGeometry width="50" height="50" relative="1" as="geometry">
            <mxPoint x="240" y="470" as="sourcePoint" />
            <mxPoint x="290" y="420" as="targetPoint" />
          </mxGeometry>
        </mxCell>
        <mxCell id="4nFBKKFQW2utwHD5Wa9A-14" value="" style="endArrow=classic;html=1;rounded=0;entryX=0.5;entryY=1;entryDx=0;entryDy=0;entryPerimeter=0;" edge="1" parent="1" target="4nFBKKFQW2utwHD5Wa9A-2">
          <mxGeometry width="50" height="50" relative="1" as="geometry">
            <mxPoint x="260" y="300" as="sourcePoint" />
            <mxPoint x="310" y="250" as="targetPoint" />
          </mxGeometry>
        </mxCell>
        <mxCell id="4nFBKKFQW2utwHD5Wa9A-15" value="第三方协作" style="text;html=1;strokeColor=none;fillColor=none;align=center;verticalAlign=middle;whiteSpace=wrap;rounded=0;" vertex="1" parent="1">
          <mxGeometry x="280" y="50" width="100" height="30" as="geometry" />
        </mxCell>
        <mxCell id="4nFBKKFQW2utwHD5Wa9A-16" value="" style="endArrow=classic;html=1;rounded=0;" edge="1" parent="1" target="4nFBKKFQW2utwHD5Wa9A-3">
          <mxGeometry width="50" height="50" relative="1" as="geometry">
            <mxPoint x="380" y="180" as="sourcePoint" />
            <mxPoint x="430" y="130" as="targetPoint" />
          </mxGeometry>
        </mxCell>
        <mxCell id="4nFBKKFQW2utwHD5Wa9A-17" value="同步" style="text;html=1;strokeColor=none;fillColor=none;align=center;verticalAlign=middle;whiteSpace=wrap;rounded=0;" vertex="1" parent="1">
          <mxGeometry x="390" y="180" width="60" height="30" as="geometry" />
        </mxCell>
        <mxCell id="4nFBKKFQW2utwHD5Wa9A-18" value="add&amp;nbsp;&lt;br&gt;commit&amp;nbsp;" style="text;html=1;strokeColor=none;fillColor=none;align=center;verticalAlign=middle;whiteSpace=wrap;rounded=0;" vertex="1" parent="1">
          <mxGeometry x="180" y="410" width="60" height="30" as="geometry" />
        </mxCell>
        <mxCell id="4nFBKKFQW2utwHD5Wa9A-19" value="" style="endArrow=classic;html=1;rounded=0;" edge="1" parent="1" target="4nFBKKFQW2utwHD5Wa9A-8">
          <mxGeometry width="50" height="50" relative="1" as="geometry">
            <mxPoint x="250" y="370" as="sourcePoint" />
            <mxPoint x="300" y="320" as="targetPoint" />
          </mxGeometry>
        </mxCell>
        <mxCell id="4nFBKKFQW2utwHD5Wa9A-20" value="" style="endArrow=classic;html=1;rounded=0;entryX=0.371;entryY=1.028;entryDx=0;entryDy=0;entryPerimeter=0;" edge="1" parent="1">
          <mxGeometry width="50" height="50" relative="1" as="geometry">
            <mxPoint x="385" y="470" as="sourcePoint" />
            <mxPoint x="387.26" y="372.24" as="targetPoint" />
          </mxGeometry>
        </mxCell>
        <mxCell id="4nFBKKFQW2utwHD5Wa9A-21" value="add&amp;nbsp;&lt;br&gt;commit&amp;nbsp;" style="text;html=1;strokeColor=none;fillColor=none;align=center;verticalAlign=middle;whiteSpace=wrap;rounded=0;" vertex="1" parent="1">
          <mxGeometry x="325" y="410" width="60" height="30" as="geometry" />
        </mxCell>
        <mxCell id="4nFBKKFQW2utwHD5Wa9A-22" value="" style="endArrow=classic;html=1;rounded=0;" edge="1" parent="1">
          <mxGeometry width="50" height="50" relative="1" as="geometry">
            <mxPoint x="395" y="370" as="sourcePoint" />
            <mxPoint x="391.1538461538462" y="470" as="targetPoint" />
          </mxGeometry>
        </mxCell>
        <mxCell id="4nFBKKFQW2utwHD5Wa9A-23" value="" style="endArrow=classic;html=1;rounded=0;entryX=0.371;entryY=1.028;entryDx=0;entryDy=0;entryPerimeter=0;" edge="1" parent="1">
          <mxGeometry width="50" height="50" relative="1" as="geometry">
            <mxPoint x="520" y="470" as="sourcePoint" />
            <mxPoint x="522.26" y="372.24" as="targetPoint" />
          </mxGeometry>
        </mxCell>
        <mxCell id="4nFBKKFQW2utwHD5Wa9A-24" value="add&amp;nbsp;&lt;br&gt;commit&amp;nbsp;" style="text;html=1;strokeColor=none;fillColor=none;align=center;verticalAlign=middle;whiteSpace=wrap;rounded=0;" vertex="1" parent="1">
          <mxGeometry x="460" y="410" width="60" height="30" as="geometry" />
        </mxCell>
        <mxCell id="4nFBKKFQW2utwHD5Wa9A-25" value="" style="endArrow=classic;html=1;rounded=0;" edge="1" parent="1">
          <mxGeometry width="50" height="50" relative="1" as="geometry">
            <mxPoint x="530" y="370" as="sourcePoint" />
            <mxPoint x="526.1538461538462" y="470" as="targetPoint" />
          </mxGeometry>
        </mxCell>
        <mxCell id="4nFBKKFQW2utwHD5Wa9A-26" value="" style="endArrow=classic;html=1;rounded=0;entryX=0.371;entryY=1.028;entryDx=0;entryDy=0;entryPerimeter=0;" edge="1" parent="1">
          <mxGeometry width="50" height="50" relative="1" as="geometry">
            <mxPoint x="640" y="470" as="sourcePoint" />
            <mxPoint x="642.26" y="372.24" as="targetPoint" />
          </mxGeometry>
        </mxCell>
        <mxCell id="4nFBKKFQW2utwHD5Wa9A-27" value="add&amp;nbsp;&lt;br&gt;commit&amp;nbsp;" style="text;html=1;strokeColor=none;fillColor=none;align=center;verticalAlign=middle;whiteSpace=wrap;rounded=0;" vertex="1" parent="1">
          <mxGeometry x="580" y="410" width="60" height="30" as="geometry" />
        </mxCell>
        <mxCell id="4nFBKKFQW2utwHD5Wa9A-28" value="" style="endArrow=classic;html=1;rounded=0;" edge="1" parent="1">
          <mxGeometry width="50" height="50" relative="1" as="geometry">
            <mxPoint x="650" y="370" as="sourcePoint" />
            <mxPoint x="646.1538461538462" y="470" as="targetPoint" />
          </mxGeometry>
        </mxCell>
        <mxCell id="4nFBKKFQW2utwHD5Wa9A-29" value="push" style="text;html=1;strokeColor=none;fillColor=none;align=center;verticalAlign=middle;whiteSpace=wrap;rounded=0;" vertex="1" parent="1">
          <mxGeometry x="265" y="230" width="60" height="30" as="geometry" />
        </mxCell>
        <mxCell id="4nFBKKFQW2utwHD5Wa9A-30" value="" style="endArrow=classic;html=1;rounded=0;entryX=0.855;entryY=0;entryDx=0;entryDy=4.35;entryPerimeter=0;" edge="1" parent="1" target="4nFBKKFQW2utwHD5Wa9A-4">
          <mxGeometry width="50" height="50" relative="1" as="geometry">
            <mxPoint x="365" y="205" as="sourcePoint" />
            <mxPoint x="415" y="155" as="targetPoint" />
          </mxGeometry>
        </mxCell>
        <mxCell id="4nFBKKFQW2utwHD5Wa9A-31" value="pull" style="text;html=1;strokeColor=none;fillColor=none;align=center;verticalAlign=middle;whiteSpace=wrap;rounded=0;" vertex="1" parent="1">
          <mxGeometry x="300" y="240" width="60" height="30" as="geometry" />
        </mxCell>
        <mxCell id="4nFBKKFQW2utwHD5Wa9A-32" value="" style="endArrow=classic;html=1;rounded=0;entryX=0.5;entryY=1;entryDx=0;entryDy=0;entryPerimeter=0;" edge="1" parent="1">
          <mxGeometry width="50" height="50" relative="1" as="geometry">
            <mxPoint x="361" y="305" as="sourcePoint" />
            <mxPoint x="461" y="205" as="targetPoint" />
          </mxGeometry>
        </mxCell>
        <mxCell id="4nFBKKFQW2utwHD5Wa9A-33" value="push" style="text;html=1;strokeColor=none;fillColor=none;align=center;verticalAlign=middle;whiteSpace=wrap;rounded=0;" vertex="1" parent="1">
          <mxGeometry x="366" y="235" width="60" height="30" as="geometry" />
        </mxCell>
        <mxCell id="4nFBKKFQW2utwHD5Wa9A-34" value="" style="endArrow=classic;html=1;rounded=0;entryX=0.855;entryY=0;entryDx=0;entryDy=4.35;entryPerimeter=0;" edge="1" parent="1">
          <mxGeometry width="50" height="50" relative="1" as="geometry">
            <mxPoint x="466" y="210" as="sourcePoint" />
            <mxPoint x="372.29999999999995" y="299.3499999999999" as="targetPoint" />
          </mxGeometry>
        </mxCell>
        <mxCell id="4nFBKKFQW2utwHD5Wa9A-35" value="pull" style="text;html=1;strokeColor=none;fillColor=none;align=center;verticalAlign=middle;whiteSpace=wrap;rounded=0;" vertex="1" parent="1">
          <mxGeometry x="401" y="245" width="60" height="30" as="geometry" />
        </mxCell>
        <mxCell id="4nFBKKFQW2utwHD5Wa9A-40" value="" style="endArrow=classic;html=1;rounded=0;entryX=0.718;entryY=0.928;entryDx=0;entryDy=0;entryPerimeter=0;" edge="1" parent="1" target="4nFBKKFQW2utwHD5Wa9A-1">
          <mxGeometry width="50" height="50" relative="1" as="geometry">
            <mxPoint x="500" y="300" as="sourcePoint" />
            <mxPoint x="600" y="200" as="targetPoint" />
          </mxGeometry>
        </mxCell>
        <mxCell id="4nFBKKFQW2utwHD5Wa9A-41" value="push" style="text;html=1;strokeColor=none;fillColor=none;align=center;verticalAlign=middle;whiteSpace=wrap;rounded=0;" vertex="1" parent="1">
          <mxGeometry x="460" y="240" width="60" height="30" as="geometry" />
        </mxCell>
        <mxCell id="4nFBKKFQW2utwHD5Wa9A-42" value="" style="endArrow=classic;html=1;rounded=0;entryX=0.855;entryY=0;entryDx=0;entryDy=4.35;entryPerimeter=0;exitX=0.738;exitY=0.909;exitDx=0;exitDy=0;exitPerimeter=0;" edge="1" parent="1" source="4nFBKKFQW2utwHD5Wa9A-1">
          <mxGeometry width="50" height="50" relative="1" as="geometry">
            <mxPoint x="605" y="205" as="sourcePoint" />
            <mxPoint x="511.29999999999995" y="294.3499999999999" as="targetPoint" />
          </mxGeometry>
        </mxCell>
        <mxCell id="4nFBKKFQW2utwHD5Wa9A-43" value="pull" style="text;html=1;strokeColor=none;fillColor=none;align=center;verticalAlign=middle;whiteSpace=wrap;rounded=0;" vertex="1" parent="1">
          <mxGeometry x="505" y="245" width="60" height="30" as="geometry" />
        </mxCell>
        <mxCell id="4nFBKKFQW2utwHD5Wa9A-44" value="" style="endArrow=classic;html=1;rounded=0;entryX=0.899;entryY=0.803;entryDx=0;entryDy=0;entryPerimeter=0;" edge="1" parent="1" target="4nFBKKFQW2utwHD5Wa9A-1">
          <mxGeometry width="50" height="50" relative="1" as="geometry">
            <mxPoint x="630" y="305" as="sourcePoint" />
            <mxPoint x="730" y="205" as="targetPoint" />
          </mxGeometry>
        </mxCell>
        <mxCell id="4nFBKKFQW2utwHD5Wa9A-45" value="push" style="text;html=1;strokeColor=none;fillColor=none;align=center;verticalAlign=middle;whiteSpace=wrap;rounded=0;" vertex="1" parent="1">
          <mxGeometry x="560" y="260" width="60" height="30" as="geometry" />
        </mxCell>
        <mxCell id="4nFBKKFQW2utwHD5Wa9A-46" value="" style="endArrow=classic;html=1;rounded=0;entryX=0.855;entryY=0;entryDx=0;entryDy=4.35;entryPerimeter=0;exitX=0.96;exitY=0.734;exitDx=0;exitDy=0;exitPerimeter=0;" edge="1" parent="1" source="4nFBKKFQW2utwHD5Wa9A-1">
          <mxGeometry width="50" height="50" relative="1" as="geometry">
            <mxPoint x="735" y="210" as="sourcePoint" />
            <mxPoint x="641.3" y="299.3499999999999" as="targetPoint" />
          </mxGeometry>
        </mxCell>
        <mxCell id="4nFBKKFQW2utwHD5Wa9A-47" value="pull" style="text;html=1;strokeColor=none;fillColor=none;align=center;verticalAlign=middle;whiteSpace=wrap;rounded=0;" vertex="1" parent="1">
          <mxGeometry x="595" y="230" width="60" height="30" as="geometry" />
        </mxCell>
      </root>
    </mxGraphModel>
  </diagram>
</mxfile>
